<svg width="128" height="24" viewBox="0 0 128 24" fill="none" xmlns="http://www.w3.org/2000/svg">
<g clip-path="url(#clip0_6398_572)">
<path d="M45.2804 13.4551H47.1373V15.1263C47.171 15.1375 47.2048 15.1488 47.2385 15.16C47.4974 15.2726 47.7787 15.3682 48.0826 15.447C48.3977 15.5145 48.7297 15.5483 49.0786 15.5483C49.7088 15.5483 50.1983 15.4245 50.5472 15.1769C50.8961 14.9181 51.0705 14.5748 51.0705 14.1472C51.0705 13.7646 50.9242 13.4551 50.6316 13.2187C50.3503 12.9824 49.9958 12.7742 49.5681 12.5942C49.1517 12.4141 48.6903 12.234 48.1839 12.054C47.6887 11.8739 47.2273 11.6488 46.7996 11.3787C46.3832 11.0974 46.0287 10.7485 45.7361 10.3321C45.4548 9.91572 45.3141 9.37553 45.3141 8.71155C45.3141 8.20512 45.4098 7.74371 45.6011 7.32732C45.8037 6.89967 46.0794 6.53392 46.4283 6.23006C46.7884 5.9262 47.216 5.68987 47.7112 5.52106C48.2064 5.35225 48.7578 5.26785 49.3655 5.26785C50.052 5.26785 50.7273 5.32975 51.3912 5.45354C52.0552 5.57733 52.5842 5.74614 52.978 5.95997V9.38678H51.1211V7.51301C51.0874 7.51301 51.0536 7.50738 51.0199 7.49613C50.7723 7.4286 50.5022 7.37796 50.2096 7.3442C49.9282 7.29918 49.6469 7.27667 49.3655 7.27667C48.8253 7.27667 48.3977 7.38359 48.0826 7.59741C47.7787 7.81124 47.6268 8.09821 47.6268 8.45834C47.6268 8.82972 47.7675 9.13357 48.0488 9.3699C48.3414 9.60624 48.6959 9.82006 49.1123 10.0114C49.54 10.2027 50.0014 10.394 50.4966 10.5853C51.003 10.7766 51.4644 11.013 51.8808 11.2943C52.3084 11.5644 52.6629 11.9077 52.9443 12.3241C53.2369 12.7405 53.3832 13.2638 53.3832 13.894C53.3832 14.5017 53.2706 15.0363 53.0456 15.4977C52.8205 15.9478 52.5054 16.3305 52.1002 16.6456C51.6951 16.9494 51.2168 17.1745 50.6654 17.3208C50.1139 17.4784 49.5175 17.5571 48.876 17.5571C48.4483 17.5571 48.0488 17.5234 47.6774 17.4558C47.3173 17.3883 46.9797 17.3039 46.6646 17.2026C46.3607 17.1013 46.0906 16.9944 45.8543 16.8819C45.618 16.7694 45.4267 16.6737 45.2804 16.5949V13.4551ZM60.1827 8.88036H63.3225V14.7549C63.3225 14.9912 63.3225 15.2276 63.3225 15.4639H64.6055V17.3208H61.9383L61.55 16.0716H61.4825C61.2236 16.4993 60.8354 16.8538 60.3177 17.1351C59.8 17.4165 59.2261 17.5571 58.5959 17.5571C58.1682 17.5571 57.7743 17.5009 57.4142 17.3883C57.0653 17.2758 56.7671 17.0901 56.5195 16.8313C56.2719 16.5724 56.0806 16.2235 55.9456 15.7846C55.8105 15.3457 55.743 14.7943 55.743 14.1303V10.7373H54.7808V8.88036H57.9375V13.6745C57.9375 14.361 58.0444 14.8562 58.2582 15.16C58.4833 15.4639 58.8322 15.6158 59.3049 15.6158C59.7212 15.6158 60.0926 15.492 60.419 15.2445C60.7566 14.9969 60.9929 14.693 61.128 14.3329V10.7373H60.1827V8.88036ZM65.0408 8.88036H67.9106L68.1638 9.89321H68.2313C68.8165 9.06042 69.7618 8.64403 71.0673 8.64403C71.585 8.64403 72.0576 8.72843 72.4853 8.89724C72.9242 9.05479 73.2956 9.30801 73.5994 9.65688C73.9145 10.0058 74.1565 10.4447 74.3253 10.9736C74.4941 11.5025 74.5785 12.1384 74.5785 12.8811C74.5785 13.6014 74.4829 14.2541 74.2916 14.8393C74.1002 15.4133 73.8245 15.9028 73.4644 16.3079C73.1043 16.7131 72.6654 17.0226 72.1477 17.2364C71.63 17.4502 71.0392 17.5571 70.3752 17.5571C70.0263 17.5571 69.6831 17.529 69.3455 17.4727C69.0078 17.4277 68.7265 17.3489 68.5014 17.2364V20.697H66.3069V10.7373H65.0408V8.88036ZM70.409 10.5009C69.9813 10.5009 69.5874 10.6078 69.2273 10.8217C68.8784 11.0355 68.6365 11.3562 68.5014 11.7839V15.2951C68.659 15.4189 68.884 15.5202 69.1766 15.599C69.4805 15.6665 69.7844 15.7002 70.0882 15.7002C70.4033 15.7002 70.6959 15.6496 70.966 15.5483C71.2361 15.4358 71.4724 15.2613 71.675 15.025C71.8776 14.7887 72.0351 14.4904 72.1477 14.1303C72.2602 13.7702 72.3165 13.3369 72.3165 12.8305C72.3165 12.0877 72.1364 11.5138 71.7763 11.1086C71.4162 10.7035 70.9604 10.5009 70.409 10.5009ZM84.4841 16.4261C84.3378 16.5612 84.1465 16.6962 83.9101 16.8313C83.6851 16.955 83.415 17.0732 83.0999 17.1858C82.796 17.2983 82.4584 17.3883 82.087 17.4558C81.7156 17.5234 81.3217 17.5571 80.9053 17.5571C80.1851 17.5571 79.538 17.4558 78.964 17.2533C78.4013 17.0507 77.923 16.7581 77.5292 16.3755C77.1353 15.9816 76.8314 15.5145 76.6176 14.9744C76.415 14.4229 76.3137 13.7983 76.3137 13.1006C76.3137 12.3578 76.4319 11.7107 76.6682 11.1593C76.9046 10.5966 77.2253 10.1295 77.6304 9.75816C78.0468 9.38678 78.5308 9.11106 79.0822 8.931C79.6336 8.73968 80.2301 8.64403 80.8716 8.64403C81.2992 8.64403 81.7381 8.7003 82.1883 8.81284C82.6497 8.92537 83.0717 9.12232 83.4544 9.40367C83.837 9.67376 84.1465 10.0395 84.3828 10.5009C84.6304 10.9623 84.7542 11.5475 84.7542 12.2565C84.7542 12.7405 84.6979 13.2638 84.5854 13.8265H78.5083C78.5195 14.1866 78.5927 14.4904 78.7277 14.738C78.874 14.9856 79.0597 15.1882 79.2848 15.3457C79.5211 15.5033 79.7856 15.6215 80.0782 15.7002C80.382 15.7678 80.7028 15.8015 81.0404 15.8015C81.7156 15.8015 82.2671 15.7227 82.6947 15.5652C83.1336 15.4076 83.4881 15.2163 83.7582 14.9912L84.4841 16.4261ZM80.8378 10.3996C80.5452 10.3996 80.2695 10.439 80.0107 10.5178C79.7518 10.5966 79.5155 10.7147 79.3017 10.8723C79.0991 11.0186 78.9303 11.2043 78.7952 11.4294C78.6602 11.6545 78.5814 11.9077 78.5589 12.189H82.7116C82.7116 11.6376 82.554 11.2043 82.2389 10.8892C81.9351 10.5628 81.468 10.3996 80.8378 10.3996ZM86.5569 15.4639H88.6501V10.7373H86.5569V8.88036H90.3551L90.6083 9.9945H90.6758C90.991 9.62312 91.3511 9.31363 91.7562 9.06605C92.1614 8.81846 92.634 8.69467 93.1742 8.69467C93.8494 8.69467 94.3784 8.94225 94.761 9.43743C95.1549 9.9326 95.3518 10.7598 95.3518 11.9189H93.3768C93.3768 11.5138 93.3149 11.2212 93.1911 11.0411C93.0786 10.8498 92.8929 10.7541 92.634 10.7541C92.1839 10.7541 91.8181 10.8667 91.5368 11.0918C91.2667 11.3168 91.036 11.5757 90.8447 11.8683V15.4639H94.5078V17.3208H86.5569V15.4639ZM101.493 5.50418H105.021V12.7967C105.021 13.6408 105.066 14.4736 105.156 15.2951C105.156 15.3514 105.162 15.4076 105.173 15.4639H106.253V17.3208H103.536L103.316 16.2404H103.249C103.136 16.443 102.984 16.6231 102.793 16.7806C102.601 16.9382 102.388 17.0788 102.151 17.2026C101.915 17.3152 101.656 17.3996 101.375 17.4558C101.093 17.5234 100.812 17.5571 100.531 17.5571C100.002 17.5571 99.501 17.4727 99.0284 17.3039C98.5669 17.1351 98.1618 16.8763 97.8129 16.5274C97.4641 16.1673 97.1883 15.7171 96.9858 15.1769C96.7832 14.6255 96.6819 13.9784 96.6819 13.2356C96.6819 12.5154 96.7888 11.8739 97.0027 11.3112C97.2277 10.7485 97.5316 10.2758 97.9142 9.89321C98.3081 9.49932 98.7695 9.2011 99.2985 8.99852C99.8274 8.7847 100.407 8.67779 101.037 8.67779C101.386 8.67779 101.712 8.7003 102.016 8.74531C102.331 8.77907 102.601 8.84097 102.827 8.931V7.36108H101.493V5.50418ZM101.037 15.7002C101.465 15.7002 101.842 15.599 102.168 15.3964C102.506 15.1826 102.725 14.8787 102.827 14.4848V10.9061C102.669 10.7823 102.45 10.6922 102.168 10.636C101.898 10.5684 101.611 10.5347 101.307 10.5347C101.003 10.5347 100.705 10.5853 100.413 10.6866C100.131 10.7879 99.878 10.9511 99.6529 11.1762C99.4391 11.39 99.2647 11.6713 99.1296 12.0202C99.0058 12.3691 98.944 12.7967 98.944 13.3032C98.944 14.0234 99.124 14.603 99.4841 15.0419C99.8443 15.4808 100.362 15.7002 101.037 15.7002ZM108.276 9.45431C108.726 9.25174 109.243 9.0773 109.829 8.931C110.425 8.7847 111.128 8.71155 111.939 8.71155C112.524 8.71155 113.019 8.7847 113.424 8.931C113.841 9.06605 114.173 9.26299 114.42 9.52183C114.679 9.78067 114.865 10.0902 114.977 10.4503C115.09 10.8104 115.146 11.2155 115.146 11.6657C115.146 12.2397 115.124 12.7292 115.079 13.1343C115.045 13.5395 115.028 13.8996 115.028 14.2147C115.028 14.4511 115.039 14.7155 115.062 15.0081C115.084 15.1657 115.101 15.3176 115.112 15.4639H116.21V17.3208H113.407L113.188 16.1729H113.103C112.878 16.5218 112.558 16.8256 112.141 17.0845C111.725 17.3321 111.162 17.4558 110.453 17.4558C109.609 17.4558 108.94 17.2308 108.444 16.7806C107.949 16.3305 107.702 15.734 107.702 14.9912C107.702 14.5186 107.786 14.1134 107.955 13.7758C108.135 13.4269 108.388 13.1456 108.714 12.9318C109.052 12.7067 109.452 12.5435 109.913 12.4422C110.386 12.3297 110.909 12.2734 111.483 12.2734C111.685 12.2734 111.899 12.2847 112.124 12.3072C112.349 12.3297 112.625 12.3522 112.952 12.3747C112.974 12.2622 112.985 12.1496 112.985 12.0371V11.7163C112.985 11.2887 112.862 10.9848 112.614 10.8048C112.366 10.6135 112.001 10.5178 111.517 10.5178C110.943 10.5178 110.425 10.591 109.964 10.7373C109.502 10.8836 109.114 11.0299 108.799 11.1762L108.276 9.45431ZM111.162 15.6496C111.702 15.6496 112.108 15.5539 112.378 15.3626C112.648 15.16 112.845 14.9462 112.968 14.7211V13.7083C112.856 13.6858 112.687 13.6633 112.462 13.6408C112.237 13.607 111.995 13.5901 111.736 13.5901C111.522 13.5901 111.308 13.6126 111.095 13.6576C110.881 13.6914 110.69 13.7533 110.521 13.8433C110.352 13.9221 110.217 14.029 110.116 14.1641C110.014 14.2991 109.964 14.4623 109.964 14.6536C109.964 14.9687 110.054 15.2163 110.234 15.3964C110.425 15.5652 110.735 15.6496 111.162 15.6496ZM117.776 13.1006C117.776 12.3916 117.883 11.7614 118.097 11.2099C118.311 10.6585 118.614 10.1914 119.008 9.80881C119.402 9.42617 119.869 9.1392 120.409 8.94788C120.961 8.74531 121.574 8.64403 122.249 8.64403C122.958 8.64403 123.589 8.75094 124.14 8.96476C124.703 9.17859 125.175 9.48244 125.558 9.87633C125.941 10.259 126.228 10.726 126.419 11.2774C126.622 11.8289 126.723 12.4366 126.723 13.1006C126.723 13.8096 126.616 14.4398 126.402 14.9912C126.188 15.5427 125.884 16.0097 125.491 16.3924C125.097 16.775 124.624 17.0676 124.073 17.2702C123.532 17.4615 122.925 17.5571 122.249 17.5571C121.54 17.5571 120.905 17.4502 120.342 17.2364C119.79 17.0226 119.323 16.7243 118.941 16.3417C118.558 15.9478 118.266 15.4752 118.063 14.9237C117.872 14.3723 117.776 13.7646 117.776 13.1006ZM120.038 13.1006C120.038 13.472 120.089 13.8152 120.19 14.1303C120.291 14.4454 120.438 14.7211 120.629 14.9575C120.82 15.1938 121.051 15.3795 121.321 15.5145C121.591 15.6383 121.901 15.7002 122.249 15.7002C122.902 15.7002 123.431 15.492 123.836 15.0756C124.253 14.6592 124.461 14.0009 124.461 13.1006C124.461 12.3241 124.269 11.6995 123.887 11.2268C123.504 10.7429 122.958 10.5009 122.249 10.5009C121.934 10.5009 121.642 10.5516 121.372 10.6529C121.102 10.7429 120.865 10.8948 120.663 11.1086C120.471 11.3225 120.319 11.5926 120.207 11.9189C120.094 12.2453 120.038 12.6392 120.038 13.1006Z" fill="white"/>
<path d="M26.2632 5.52893L28.2577 13.8553C28.4763 14.7679 27.7845 15.645 26.8461 15.645H8.85841C7.14492 15.645 5.61376 14.575 5.02473 12.9659L4.86135 12.5196C4.77467 12.2828 4.94996 12.032 5.20212 12.032H16.9494C17.0886 12.032 17.2013 11.9192 17.2013 11.7801C17.2013 10.7368 16.3555 9.89096 15.3122 9.89096H6.75202C5.03852 9.89096 3.50737 8.82095 2.91833 7.21188L2.77129 6.81019C2.6846 6.57339 2.8599 6.32255 3.11206 6.32255H14.2731C14.4123 6.32255 14.525 6.20978 14.525 6.07067C14.525 5.02732 13.6792 4.18151 12.6359 4.18151H4.66195C2.94846 4.18151 1.4173 3.1115 0.82827 1.50243L0.697552 1.14535C0.610868 0.908555 0.786162 0.657715 1.03832 0.657715H20.0874C23.0249 0.657715 25.579 2.67228 26.2632 5.52893Z" fill="url(#paint0_linear_6398_572)"/>
<path d="M33.325 8.00723L36.1221 20.0198C36.3341 20.9301 35.643 21.8005 34.7084 21.8005H15.9471C14.1701 21.8005 12.5973 20.6511 12.0575 18.9582L11.8674 18.3619C11.7554 18.0108 12.0175 17.6522 12.386 17.6522H29.5177C30.4575 17.6522 31.1496 16.7726 30.9284 15.8591L28.4261 5.523C28.3431 5.18044 28.6027 4.85059 28.9551 4.85059H29.3489C31.2469 4.85059 32.8945 6.15866 33.325 8.00723Z" fill="url(#paint1_linear_6398_572)"/>
</g>
<defs>
<linearGradient id="paint0_linear_6398_572" x1="14.4804" y1="0.657715" x2="14.4804" y2="15.645" gradientUnits="userSpaceOnUse">
<stop stop-color="#FFC803"/>
<stop offset="1" stop-color="#FFA903"/>
</linearGradient>
<linearGradient id="paint1_linear_6398_572" x1="23.9666" y1="4.85059" x2="23.9666" y2="21.8005" gradientUnits="userSpaceOnUse">
<stop stop-color="#FF7421"/>
<stop offset="1" stop-color="#EC5901"/>
</linearGradient>
<clipPath id="clip0_6398_572">
<rect width="127.2" height="24" fill="white"/>
</clipPath>
</defs>
</svg>
